<mxfile host="app.diagrams.net" modified="2023-10-17T02:05:05.360Z" agent="Mozilla/5.0 (Windows NT 10.0; Win64; x64) AppleWebKit/537.36 (KHTML, like Gecko) Chrome/117.0.0.0 Safari/537.36 Edg/117.0.2045.60" version="22.0.4" etag="5cOO8dx_tlTnU-JmuEZy" type="github">
  <diagram name="第 1 页" id="yA0bbBMwGTumx4SbpoVj">
    <mxGraphModel>
      <root>
        <mxCell id="0" />
        <mxCell id="1" parent="0" />
      </root>
    </mxGraphModel>
  </diagram>
</mxfile>
